<?xml version="1.0" encoding="utf-8"?>
<!-- Generator: Adobe Illustrator 24.3.0, SVG Export Plug-In . SVG Version: 6.00 Build 0)  -->
<svg version="1.1" id="Layer_1" xmlns="http://www.w3.org/2000/svg" xmlns:xlink="http://www.w3.org/1999/xlink" x="0px" y="0px"
	 viewBox="0 0 270 34" style="enable-background:new 0 0 270 34;" xml:space="preserve">
<style type="text/css">
	.st0{fill:#FFFFFF;}
	.st1{fill:#F13024;}
</style>
<path class="st0" d="M105.8,33c-2.1,0-3.9-0.4-5.4-1.1c-1.5-0.7-2.8-1.6-3.8-2.8c-1-1.2-1.8-2.5-2.3-4c-0.5-1.5-0.7-3-0.7-4.5v-0.8
	c0-1.6,0.2-3.1,0.7-4.6c0.5-1.5,1.3-2.8,2.3-4c1-1.2,2.3-2.1,3.8-2.8c1.5-0.7,3.2-1.1,5.2-1.1c2.6,0,4.7,0.6,6.5,1.7
	c1.8,1.1,3.1,2.6,4,4.4c0.9,1.8,1.3,3.8,1.3,5.9v2.2H96.1V18h17.3l-1.9,1.8c0-1.5-0.2-2.8-0.7-3.9s-1.1-1.9-2-2.5
	c-0.9-0.6-2-0.9-3.3-0.9c-1.3,0-2.5,0.3-3.4,0.9c-0.9,0.6-1.7,1.5-2.2,2.7c-0.5,1.1-0.7,2.5-0.7,4.1c0,1.5,0.2,2.8,0.7,4
	c0.5,1.1,1.2,2.1,2.2,2.7c1,0.6,2.2,1,3.7,1c1.5,0,2.7-0.3,3.7-0.9c0.9-0.6,1.5-1.4,1.8-2.2h5.6c-0.4,1.6-1,3.1-2,4.3
	c-1,1.2-2.3,2.2-3.8,2.9C109.5,32.7,107.8,33,105.8,33z M143.6,32.8c2.2,0,4-0.3,5.5-0.9c1.4-0.6,2.5-1.7,3.2-3.2
	c0.7-1.5,1.1-3.5,1.1-6l0-23.5h-5.7l0,23.9c0,1.3-0.3,2.3-0.9,3c-0.6,0.7-1.6,1-2.7,1h-3.7v5.7H143.6z M1.1,33.1V0.9h6.1v18.7H6.2
	c0-2.4,0.3-4.4,0.9-6.1c0.6-1.7,1.5-2.9,2.7-3.8c1.2-0.9,2.8-1.3,4.7-1.3h0.3c2.7,0,4.8,0.9,6.2,2.8c1.4,1.9,2.1,4.6,2.1,8.2v13.6
	h-6.1V18.8c0-1.5-0.4-2.7-1.3-3.6c-0.9-0.9-2-1.3-3.4-1.3c-1.5,0-2.7,0.5-3.7,1.5c-0.9,1-1.4,2.2-1.4,3.8v13.8H1.1z M23.1,33.1V0.9
	h-6.1v18.7H18c0-2.4-0.3-4.4-0.9-6.1c-0.6-1.7-1.5-2.9-2.7-3.8c-1.2-0.9-2.8-1.3-4.7-1.3H9.4c-2.7,0-4.8,0.9-6.2,2.8
	c-1.4,1.9-2.1,4.6-2.1,8.2v13.6h6.1V18.8c0-1.5,0.4-2.7,1.3-3.6c0.9-0.9,2-1.3,3.4-1.3c1.5,0,2.7,0.5,3.7,1.5c0.9,1,1.4,2.2,1.4,3.8
	v13.8H23.1z M44.7,33v-7.1h-1V18c0-1.4-0.3-2.4-1-3.1c-0.7-0.7-1.7-1-3.1-1c-0.7,0-1.6,0-2.6,0c-1,0-2.1,0.1-3.1,0.1
	c-1,0-2,0.1-2.8,0.1V9.1c0.7-0.1,1.4-0.1,2.3-0.2c0.9-0.1,1.7-0.1,2.6-0.1c0.9,0,1.8,0,2.6,0c2.5,0,4.5,0.3,6.1,1
	c1.6,0.6,2.9,1.7,3.7,3c0.9,1.4,1.3,3.2,1.3,5.4V33H44.7z M37,33.6c-1.7,0-3.3-0.3-4.6-0.9c-1.3-0.6-2.3-1.5-3-2.6
	c-0.7-1.1-1.1-2.5-1.1-4.1c0-1.8,0.4-3.2,1.3-4.3c0.9-1.1,2.1-2,3.7-2.5c1.6-0.6,3.4-0.8,5.5-0.8h5.5v3.7h-5.6
	c-1.4,0-2.5,0.4-3.3,1.1c-0.7,0.7-1.1,1.6-1.1,2.6s0.4,2,1.1,2.6c0.8,0.7,1.8,1,3.3,1c0.9,0,1.6-0.1,2.3-0.4
	c0.7-0.3,1.3-0.9,1.8-1.6c0.5-0.8,0.8-1.8,0.8-3.1l1.5,1.7c-0.1,1.7-0.6,3.1-1.2,4.2c-0.6,1.1-1.6,2-2.7,2.6
	C40.1,33.3,38.7,33.6,37,33.6z M182.9,32.5v-7.1h-1v-7.9c0-1.4-0.3-2.4-1-3.1c-0.7-0.7-1.7-1-3.1-1c-0.7,0-1.6,0-2.6,0
	c-1,0-2.1,0.1-3.1,0.1c-1,0-2,0.1-2.8,0.1V8.6c0.7-0.1,1.4-0.1,2.3-0.2c0.9-0.1,1.7-0.1,2.6-0.1c0.9,0,1.8,0,2.6,0
	c2.5,0,4.5,0.3,6.1,1c1.6,0.6,2.9,1.7,3.7,3c0.9,1.4,1.3,3.2,1.3,5.4v14.8H182.9z M175.2,33.2c-1.7,0-3.3-0.3-4.6-0.9
	c-1.3-0.6-2.3-1.5-3-2.6c-0.7-1.1-1.1-2.5-1.1-4.1c0-1.8,0.4-3.2,1.3-4.3c0.9-1.1,2.1-2,3.7-2.5c1.6-0.6,3.4-0.8,5.5-0.8h5.5v3.7
	H177c-1.4,0-2.5,0.4-3.3,1.1c-0.7,0.7-1.1,1.6-1.1,2.6s0.4,2,1.1,2.6c0.8,0.7,1.8,1,3.3,1c0.9,0,1.6-0.1,2.3-0.4
	c0.7-0.3,1.3-0.9,1.8-1.6c0.5-0.8,0.8-1.8,0.8-3.1l1.5,1.7c-0.1,1.7-0.6,3.1-1.2,4.2c-0.6,1.1-1.6,2-2.7,2.6
	C178.3,32.9,176.9,33.2,175.2,33.2z M245.4,31.3c-1.7,0-3.3-0.3-4.6-0.9c-1.3-0.6-2.3-1.5-3-2.6c-0.7-1.1-1.1-2.5-1.1-4.1
	c0-1.8,0.4-3.2,1.3-4.3c0.9-1.1,2.1-2,3.7-2.5c1.6-0.6,3.4-0.8,5.5-0.8h5.5v3.7h-5.6c-1.4,0-2.5,0.4-3.3,1.1
	c-0.7,0.7-1.1,1.6-1.1,2.6s0.4,2,1.1,2.6c0.8,0.7,1.8,1,3.3,1c0.9,0,1.6-0.1,2.3-0.4c0.7-0.3,1.3-0.9,1.8-1.6
	c0.5-0.8,0.8-1.8,0.8-3.1l1.5,1.7c-0.1,1.7-0.6,3.1-1.2,4.2c-0.6,1.1-1.6,2-2.7,2.6C248.5,31,247.1,31.3,245.4,31.3z M247.4,31.3
	c1.7,0,3.3-0.3,4.6-0.9c1.3-0.6,2.3-1.5,3-2.6c0.7-1.1,1.1-2.5,1.1-4.1c0-1.8-0.4-3.2-1.3-4.3c-0.9-1.1-2.1-2-3.7-2.5
	c-1.6-0.6-3.4-0.8-5.5-0.8H240v3.7h5.6c1.4,0,2.5,0.4,3.3,1.1c0.7,0.7,1.1,1.6,1.1,2.6s-0.4,2-1.1,2.6c-0.8,0.7-1.8,1-3.3,1
	c-0.9,0-1.6-0.1-2.3-0.4c-0.7-0.3-1.3-0.9-1.8-1.6c-0.5-0.8-0.8-1.8-0.8-3.1l-1.5,1.7c0.1,1.7,0.6,3.1,1.2,4.2
	c0.6,1.1,1.6,2,2.7,2.6C244.3,31,245.7,31.3,247.4,31.3z M147.3,10.7l-13.6,0.1l0,4.8l0,0l0-0.4c-2.4,0-4.5,0.4-6.1,1
	c-1.6,0.7-2.9,1.6-3.7,2.9c-0.8,1.3-1.2,2.9-1.2,4.8l0,0.3c0,2.8,1,5,2.8,6.4c1.8,1.5,4.6,2.2,8.2,2.1l13.7-0.1l0-6.1l-14.2,0.1
	c-1.5,0-2.7-0.4-3.6-1.3c-0.9-0.8-1.4-2-1.4-3.4c0-1.5,0.5-2.7,1.4-3.7c0.9-0.9,2.1-1.4,3.7-1.4l14-0.1L147.3,10.7z M206.8,32.8
	c-2.2,0-4-0.3-5.5-0.9c-1.4-0.6-2.5-1.7-3.2-3.2c-0.7-1.5-1.1-3.5-1.1-6l0-23.5h5.7l0,23.9c0,1.3,0.3,2.3,0.9,3c0.6,0.7,1.6,1,2.7,1
	h3.7v5.7H206.8z M203,10.7l23.9,0.2l0,4.8l-10.3-0.1l0-0.4c2.4,0,4.5,0.4,6.1,1c1.6,0.7,2.9,1.6,3.7,2.9c0.8,1.3,1.2,2.9,1.2,4.8
	l0,0.3c0,2.8-1,5-2.8,6.4c-1.8,1.5-4.6,2.2-8.2,2.1l-13.7-0.1l0-6.1l14.2,0.1c1.5,0,2.7-0.4,3.6-1.3c0.9-0.8,1.4-2,1.4-3.4
	c0-1.5-0.5-2.7-1.4-3.7c-0.9-0.9-2.1-1.4-3.7-1.4l-14-0.1L203,10.7z M54.9,33.3V10.2h1.8v9.5h-0.5c0-2,0.3-3.7,0.9-5.2
	c0.6-1.5,1.5-2.7,2.7-3.6c1.2-0.9,2.7-1.3,4.6-1.3h0.1c1.8,0,3.3,0.4,4.5,1.3c1.2,0.8,2.1,2,2.6,3.5c0.6,1.5,0.9,3.3,0.9,5.3h-0.9
	c0-2,0.3-3.7,0.9-5.2c0.6-1.5,1.5-2.7,2.7-3.6c1.2-0.9,2.8-1.3,4.6-1.3H80c1.8,0,3.3,0.4,4.5,1.3c1.2,0.8,2.1,2,2.7,3.5
	c0.6,1.5,0.9,3.3,0.9,5.3v13.6h-2.3V19.1c0-2.2-0.5-4-1.6-5.3c-1.1-1.4-2.6-2.1-4.7-2.1c-2.1,0-3.8,0.7-5,2.1
	c-1.2,1.4-1.8,3.2-1.8,5.5v13.9h-2.3V19.1c0-2.2-0.5-4-1.6-5.3c-1.1-1.4-2.6-2.1-4.7-2.1c-2.1,0-3.8,0.7-5,2.1
	c-1.2,1.4-1.8,3.2-1.8,5.5v13.9H54.9z M21.6,33.1V0.9h-2.3v17.2l0.8,1.5c0-2-0.3-3.8-0.9-5.3c-0.6-1.6-1.6-2.8-2.9-3.6
	c-1.3-0.9-2.9-1.3-4.9-1.3h-0.1c-2.9,0-5,0.9-6.5,2.7c-1.5,1.8-2.2,4.2-2.2,7.3v13.6H5V18.9c0-2.2,0.6-4,1.8-5.4
	c1.2-1.3,2.9-2,5.1-2c2.3,0,4.1,0.7,5.4,2.2c1.3,1.4,2,3.3,2,5.5v13.9H21.6z"/>
<path class="st1" d="M265.2,33v-4.4h4.1V33H265.2z"/>
</svg>
